<svg width="36" height="36" viewBox="0 0 36 36" fill="none" xmlns="http://www.w3.org/2000/svg">
<g clip-path="url(#clip0_10_828)">
<path d="M13.5 18.0008H22.5" stroke="#4B5563" stroke-width="2.5" stroke-linecap="round" stroke-linejoin="round"/>
<path d="M13.5 22.5008H22.5" stroke="#4B5563" stroke-width="2.5" stroke-linecap="round" stroke-linejoin="round"/>
<path d="M7.875 5.62582H28.125C28.4234 5.62582 28.7095 5.74435 28.9205 5.95533C29.1315 6.16631 29.25 6.45246 29.25 6.75082V28.1258C29.25 29.0209 28.8944 29.8794 28.2615 30.5123C27.6286 31.1452 26.7701 31.5008 25.875 31.5008H10.125C9.22989 31.5008 8.37145 31.1452 7.73851 30.5123C7.10558 29.8794 6.75 29.0209 6.75 28.1258V6.75082C6.75 6.45246 6.86853 6.16631 7.07951 5.95533C7.29048 5.74435 7.57663 5.62582 7.875 5.62582Z" stroke="#4B5563" stroke-width="2.5" stroke-linecap="round" stroke-linejoin="round"/>
<path d="M11.25 3.37582V7.87582" stroke="#4B5563" stroke-width="2.5" stroke-linecap="round" stroke-linejoin="round"/>
<path d="M18 3.37582V7.87582" stroke="#4B5563" stroke-width="2.5" stroke-linecap="round" stroke-linejoin="round"/>
<path d="M24.75 3.37582V7.87582" stroke="#4B5563" stroke-width="2.5" stroke-linecap="round" stroke-linejoin="round"/>
</g>
<defs>
<clipPath id="clip0_10_828">
<rect width="36" height="36" fill="white"/>
</clipPath>
</defs>
</svg>
