<svg width="18" height="18" viewBox="0 0 18 18" fill="none" xmlns="http://www.w3.org/2000/svg">
<path d="M9.34377 16.5618H2.09635C1.92162 16.5618 1.75403 16.4924 1.63047 16.3688C1.50691 16.2453 1.4375 16.0777 1.4375 15.9029V8.65553C1.4375 7.61727 1.642 6.58918 2.03933 5.62995C2.43665 4.67072 3.01902 3.79914 3.75318 3.06498C4.48734 2.33082 5.35892 1.74845 6.31815 1.35112C7.27738 0.953799 8.30547 0.749298 9.34373 0.749298H9.34375C10.382 0.749298 11.4101 0.953799 12.3693 1.35113C13.3286 1.74845 14.2001 2.33082 14.9343 3.06499C15.6685 3.79915 16.2508 4.67073 16.6482 5.62996C17.0455 6.58919 17.25 7.61728 17.25 8.65555V8.65556C17.25 10.7524 16.417 12.7634 14.9343 14.2461C13.4516 15.7288 11.4406 16.5618 9.34377 16.5618Z" stroke="#374151" stroke-width="1.5" stroke-linecap="round" stroke-linejoin="round"/>
</svg>
