<svg width="36" height="36" viewBox="0 0 36 36" fill="none" xmlns="http://www.w3.org/2000/svg">
<g clip-path="url(#clip0_10_824)">
<path d="M28.5 13.065L20.5005 6.843C19.7985 6.29687 18.9344 6.00035 18.045 6.00035C17.1555 6.00035 16.2915 6.29687 15.5895 6.843L7.58848 13.065C7.10765 13.4389 6.71862 13.9178 6.45112 14.465C6.18361 15.0123 6.0447 15.6134 6.04498 16.2225V27.0225C6.04498 27.8182 6.36105 28.5812 6.92366 29.1438C7.48627 29.7064 8.24933 30.0225 9.04498 30.0225H27.045C27.8406 30.0225 28.6037 29.7064 29.1663 29.1438C29.7289 28.5812 30.045 27.8182 30.045 27.0225V16.2225C30.045 14.988 29.475 13.8225 28.5 13.065Z" fill="#DF72E1"/>
<path d="M24 22.5C20.685 24.4995 15.312 24.4995 12 22.5" stroke="white" stroke-width="2.5" stroke-linecap="round" stroke-linejoin="round"/>
</g>
<defs>
<clipPath id="clip0_10_824">
<rect width="36" height="36" fill="white"/>
</clipPath>
</defs>
</svg>
