<svg width="750" height="500" viewBox="0 0 750 500" fill="none" xmlns="http://www.w3.org/2000/svg">
<rect width="750" height="500" fill="white"/>
<mask id="mask0_1_77" style="mask-type:luminance" maskUnits="userSpaceOnUse" x="470" y="130" width="212" height="213">
<path d="M470 247.679L568.745 130L681.736 224.811L582.992 342.49L470 247.679Z" fill="white"/>
</mask>
<g mask="url(#mask0_1_77)">
<path d="M580.87 311.237C560.974 313.452 541.417 307.642 526.496 295.085C525.583 294.299 525.033 293.167 524.964 291.932C524.895 290.698 525.313 289.462 526.128 288.491C526.942 287.521 528.087 286.894 529.315 286.748C530.542 286.601 531.753 286.946 532.685 287.708C545.765 298.71 562.905 303.798 580.34 301.854C588.908 300.998 597.304 298.425 605.036 294.288C612.766 290.151 619.674 284.534 625.352 277.767C631.03 271.001 635.363 263.222 638.094 254.891C640.826 246.559 641.901 237.843 641.257 229.256C640.123 211.754 632.139 195.764 619.049 184.78C605.958 173.796 588.825 168.709 571.391 170.632C562.882 171.491 554.542 174.039 546.854 178.128C539.166 182.217 532.284 187.767 526.605 194.455C525.444 195.926 524.876 197.768 525.023 199.588C525.169 201.409 526.019 203.064 527.39 204.2C528.761 205.336 530.545 205.864 532.363 205.671C534.18 205.478 535.886 204.579 537.117 203.166C537.229 203.034 537.348 202.907 537.472 202.786C546.365 192.824 558.562 186.527 571.514 185.21C585.072 183.72 598.396 187.678 608.577 196.221C618.758 204.764 624.969 217.198 625.856 230.809C626.352 237.511 625.507 244.313 623.371 250.814C621.236 257.315 617.853 263.384 613.422 268.665C608.991 273.945 603.601 278.331 597.57 281.563C591.538 284.794 584.987 286.808 578.301 287.484C564.74 288.992 551.41 285.031 541.239 276.471C539.622 275.141 538.298 273.486 537.345 271.604C536.393 269.722 535.828 267.649 535.686 265.504C535.544 263.36 535.825 261.187 536.516 259.111C537.206 257.034 538.29 255.097 539.707 253.408C541.124 251.72 542.844 250.315 544.769 249.275C546.693 248.235 548.784 247.58 550.921 247.348C553.057 247.116 555.197 247.311 557.216 247.923C559.235 248.535 561.095 249.551 562.686 250.912C562.788 250.998 562.878 251.086 562.969 251.177C563.075 251.251 563.179 251.326 563.279 251.41C566.055 253.781 569.509 255.229 573.204 255.572C576.897 255.915 580.663 255.136 584.025 253.336C587.387 251.535 590.193 248.792 592.085 245.457C593.978 242.121 594.874 238.343 594.658 234.601C594.442 230.859 593.124 227.322 590.872 224.438C588.62 221.555 585.535 219.456 582.009 218.407C578.483 217.357 574.674 217.406 571.066 218.545C567.457 219.685 564.213 221.865 561.743 224.808C561.339 225.3 560.846 225.712 560.293 226.019C559.739 226.326 559.137 226.522 558.519 226.596C557.902 226.669 557.282 226.62 556.696 226.448C556.11 226.278 555.57 225.989 555.106 225.6C554.642 225.211 554.264 224.729 553.994 224.181C553.724 223.634 553.568 223.032 553.533 222.412C553.498 221.791 553.586 221.163 553.793 220.565C553.999 219.967 554.319 219.41 554.734 218.926C558.422 214.578 563.251 211.365 568.611 209.694C573.971 208.023 579.622 207.969 584.852 209.537C590.081 211.105 594.655 214.227 597.995 218.507C601.335 222.787 603.293 228.035 603.621 233.588C603.948 239.14 602.632 244.75 599.837 249.708C597.042 254.665 592.894 258.75 587.916 261.446C582.939 264.142 577.354 265.328 571.867 264.855C566.381 264.382 561.238 262.271 557.088 258.788C556.985 258.703 556.895 258.615 556.804 258.524C556.699 258.45 556.595 258.375 556.494 258.291C555.824 257.703 555.037 257.263 554.179 256.995C553.322 256.728 552.411 256.638 551.502 256.732C550.592 256.826 549.7 257.101 548.88 257.542C548.059 257.983 547.326 258.58 546.723 259.299C546.12 260.017 545.659 260.844 545.367 261.728C545.076 262.613 544.959 263.539 545.025 264.451C545.09 265.363 545.336 266.244 545.749 267.042C546.161 267.84 546.732 268.539 547.427 269.097C555.756 276.103 566.67 279.342 577.772 278.104C583.223 277.561 588.566 275.925 593.485 273.294C598.404 270.663 602.799 267.089 606.411 262.784C610.023 258.479 612.78 253.53 614.517 248.229C616.254 242.928 616.937 237.383 616.525 231.92C615.804 220.776 610.721 210.594 602.385 203.6C594.05 196.606 583.14 193.367 572.04 194.593C566.591 195.141 561.25 196.779 556.333 199.409C551.415 202.04 547.019 205.61 543.403 209.91C543.124 210.24 542.805 210.533 542.452 210.781C539.36 213.537 535.425 215.094 531.4 215.153C527.376 215.212 523.547 213.769 520.647 211.101C517.747 208.432 515.981 204.727 515.688 200.695C515.394 196.663 516.593 192.589 519.056 189.254C519.153 189.111 519.258 188.971 519.37 188.837C519.432 188.763 519.494 188.689 519.556 188.615C519.587 188.579 519.617 188.543 519.647 188.508C519.676 188.472 519.711 188.439 519.742 188.404C526.233 180.785 534.092 174.463 542.866 169.803C551.64 165.143 561.155 162.237 570.863 161.253C590.754 159.066 610.301 164.872 625.237 177.405C640.173 189.937 649.285 208.179 650.585 228.148C651.313 237.973 650.076 247.945 646.946 257.477C643.816 267.009 638.857 275.908 632.36 283.65C625.864 291.392 617.961 297.821 609.118 302.559C600.275 307.297 590.669 310.246 580.866 311.236L580.87 311.237Z" fill="url(#paint0_linear_1_77)"/>
</g>
<path d="M125.7 255.7V276H117.2V213.3H138.5C147.367 213.3 153.7 214.9 157.5 218.1C161.367 221.3 163.3 226.533 163.3 233.8C163.3 241.2 161.3 246.7 157.3 250.3C153.3 253.9 147.133 255.7 138.8 255.7H125.7ZM154.7 233.8C154.7 229.2 153.433 225.933 150.9 224C148.433 222 144.3 221 138.5 221H125.7V248.2H138.5C144.3 248.2 148.433 247.067 150.9 244.8C153.433 242.533 154.7 238.867 154.7 233.8ZM181.148 209.5V276H172.948V209.5H181.148ZM205.534 276.8C200.468 276.8 196.734 275.6 194.334 273.2C192.001 270.733 190.834 266.867 190.834 261.6C190.834 256.267 192.268 252.5 195.134 250.3C198.001 248.033 202.868 246.9 209.734 246.9C212.001 246.9 214.234 247 216.434 247.2C218.634 247.4 220.701 247.7 222.634 248.1V243.3C222.634 239.633 221.701 237 219.834 235.4C217.968 233.8 214.968 233 210.834 233C207.768 233 205.068 233.133 202.734 233.4C200.401 233.6 198.068 233.967 195.734 234.5V227.4C198.401 226.733 201.101 226.267 203.834 226C206.634 225.733 209.801 225.6 213.334 225.6C219.268 225.6 223.668 227 226.534 229.8C229.401 232.533 230.834 236.8 230.834 242.6V276H223.334L222.934 271.4H222.734C220.734 273 218.134 274.3 214.934 275.3C211.801 276.3 208.668 276.8 205.534 276.8ZM210.634 253.6C206.101 253.6 202.934 254.167 201.134 255.3C199.401 256.367 198.534 258.3 198.534 261.1C198.534 264.033 199.268 266.167 200.734 267.5C202.201 268.767 204.601 269.4 207.934 269.4C210.534 269.4 213.201 269 215.934 268.2C218.668 267.4 220.901 266.4 222.634 265.2V254.6C220.434 254.267 218.368 254.033 216.434 253.9C214.568 253.7 212.634 253.6 210.634 253.6ZM272.065 268.3V275.2C270.998 275.667 269.532 276.033 267.665 276.3C265.865 276.633 264.132 276.8 262.465 276.8C256.465 276.8 252.165 275.467 249.565 272.8C247.032 270.133 245.765 265.533 245.765 259V233.6H238.365V226.6H245.865L247.165 214.6H253.965V226.6H271.565V233.6H253.965V258.7C253.965 262.767 254.698 265.533 256.165 267C257.698 268.467 260.365 269.2 264.165 269.2C265.365 269.2 266.732 269.1 268.265 268.9C269.865 268.7 271.132 268.5 272.065 268.3ZM316.688 266.4V273.3C314.955 274.233 312.388 275.067 308.988 275.8C305.655 276.467 302.255 276.8 298.788 276.8C291.055 276.8 285.522 274.8 282.188 270.8C278.855 266.8 277.188 260.2 277.188 251C277.188 242.133 278.922 235.7 282.388 231.7C285.855 227.633 291.388 225.6 298.988 225.6C306.055 225.6 311.122 227.2 314.188 230.4C317.255 233.533 318.788 238.8 318.788 246.2C318.788 247.533 318.755 248.767 318.688 249.9C318.622 251.033 318.488 252.4 318.288 254H285.488C285.555 259.467 286.655 263.367 288.788 265.7C290.988 268.033 294.755 269.2 300.088 269.2C302.955 269.2 305.955 268.933 309.088 268.4C312.222 267.867 314.755 267.2 316.688 266.4ZM311.288 245.1C311.222 240.7 310.255 237.6 308.388 235.8C306.522 233.933 303.388 233 298.988 233C294.055 233 290.555 234.067 288.488 236.2C286.488 238.267 285.488 241.933 285.488 247.2H311.188C311.188 247.067 311.188 246.767 311.188 246.3C311.255 245.767 311.288 245.367 311.288 245.1ZM389.093 213.3V276H381.093V226.6L363.193 263.5H355.893L337.993 226.5V276H329.993V213.3H340.693L359.693 253.2L378.793 213.3H389.093ZM414.128 276.8C409.061 276.8 405.328 275.6 402.928 273.2C400.595 270.733 399.428 266.867 399.428 261.6C399.428 256.267 400.861 252.5 403.728 250.3C406.595 248.033 411.461 246.9 418.328 246.9C420.595 246.9 422.828 247 425.028 247.2C427.228 247.4 429.295 247.7 431.228 248.1V243.3C431.228 239.633 430.295 237 428.428 235.4C426.561 233.8 423.561 233 419.428 233C416.361 233 413.661 233.133 411.328 233.4C408.995 233.6 406.661 233.967 404.328 234.5V227.4C406.995 226.733 409.695 226.267 412.428 226C415.228 225.733 418.395 225.6 421.928 225.6C427.861 225.6 432.261 227 435.128 229.8C437.995 232.533 439.428 236.8 439.428 242.6V276H431.928L431.528 271.4H431.328C429.328 273 426.728 274.3 423.528 275.3C420.395 276.3 417.261 276.8 414.128 276.8ZM419.228 253.6C414.695 253.6 411.528 254.167 409.728 255.3C407.995 256.367 407.128 258.3 407.128 261.1C407.128 264.033 407.861 266.167 409.328 267.5C410.795 268.767 413.195 269.4 416.528 269.4C419.128 269.4 421.795 269 424.528 268.2C427.261 267.4 429.495 266.4 431.228 265.2V254.6C429.028 254.267 426.961 254.033 425.028 253.9C423.161 253.7 421.228 253.6 419.228 253.6ZM480.659 268.3V275.2C479.592 275.667 478.125 276.033 476.259 276.3C474.459 276.633 472.725 276.8 471.059 276.8C465.059 276.8 460.759 275.467 458.159 272.8C455.625 270.133 454.359 265.533 454.359 259V233.6H446.959V226.6H454.459L455.759 214.6H462.559V226.6H480.159V233.6H462.559V258.7C462.559 262.767 463.292 265.533 464.759 267C466.292 268.467 468.959 269.2 472.759 269.2C473.959 269.2 475.325 269.1 476.859 268.9C478.459 268.7 479.725 268.5 480.659 268.3ZM525.282 266.4V273.3C523.549 274.233 520.982 275.067 517.582 275.8C514.249 276.467 510.849 276.8 507.382 276.8C499.649 276.8 494.115 274.8 490.782 270.8C487.449 266.8 485.782 260.2 485.782 251C485.782 242.133 487.515 235.7 490.982 231.7C494.449 227.633 499.982 225.6 507.582 225.6C514.649 225.6 519.715 227.2 522.782 230.4C525.849 233.533 527.382 238.8 527.382 246.2C527.382 247.533 527.349 248.767 527.282 249.9C527.215 251.033 527.082 252.4 526.882 254H494.082C494.149 259.467 495.249 263.367 497.382 265.7C499.582 268.033 503.349 269.2 508.682 269.2C511.549 269.2 514.549 268.933 517.682 268.4C520.815 267.867 523.349 267.2 525.282 266.4ZM519.882 245.1C519.815 240.7 518.849 237.6 516.982 235.8C515.115 233.933 511.982 233 507.582 233C502.649 233 499.149 234.067 497.082 236.2C495.082 238.267 494.082 241.933 494.082 247.2H519.782C519.782 247.067 519.782 246.767 519.782 246.3C519.849 245.767 519.882 245.367 519.882 245.1Z" fill="url(#paint1_linear_1_77)"/>
<defs>
<linearGradient id="paint0_linear_1_77" x1="650.579" y1="227.747" x2="517.797" y2="237.396" gradientUnits="userSpaceOnUse">
<stop stop-color="#C62A62"/>
<stop offset="0.123" stop-color="#C62960"/>
<stop offset="0.284" stop-color="#E32452"/>
<stop offset="0.465" stop-color="#E52452"/>
<stop offset="0.663" stop-color="#E52452"/>
<stop offset="0.87" stop-color="#DF2453"/>
<stop offset="0.99" stop-color="#E72452"/>
</linearGradient>
<linearGradient id="paint1_linear_1_77" x1="110" y1="407" x2="542" y2="407" gradientUnits="userSpaceOnUse">
<stop stop-color="#AE88F8"/>
<stop offset="1" stop-color="#C82458"/>
</linearGradient>
</defs>
</svg>