<svg width="19" height="19" viewBox="0 0 19 19" fill="none" xmlns="http://www.w3.org/2000/svg">
<path d="M8.70841 3.95832H4.75008C4.33016 3.95832 3.92743 4.12513 3.6305 4.42207C3.33356 4.719 3.16675 5.12173 3.16675 5.54165V14.25C3.16675 14.6699 3.33356 15.0726 3.6305 15.3696C3.92743 15.6665 4.33016 15.8333 4.75008 15.8333H13.4584C13.8783 15.8333 14.2811 15.6665 14.578 15.3696C14.8749 15.0726 15.0417 14.6699 15.0417 14.25V10.2917M13.9223 2.8389C14.0684 2.68768 14.2431 2.56706 14.4363 2.48408C14.6294 2.40109 14.8372 2.35742 15.0474 2.35559C15.2577 2.35376 15.4662 2.39382 15.6608 2.47344C15.8553 2.55305 16.0321 2.67061 16.1808 2.81928C16.3295 2.96794 16.447 3.14472 16.5266 3.33931C16.6062 3.53389 16.6463 3.74239 16.6445 3.95262C16.6427 4.16286 16.599 4.37062 16.516 4.56379C16.433 4.75697 16.3124 4.93168 16.1612 5.07774L9.36391 11.875H7.12508V9.63615L13.9223 2.8389Z" stroke="#374151" stroke-width="1.5" stroke-linecap="round" stroke-linejoin="round"/>
</svg>
